<svg width="20" height="26" viewBox="0 0 20 26" fill="none" xmlns="http://www.w3.org/2000/svg">
<path d="M10.9641 9.76092C11.1359 9.24529 11.8641 9.24529 12.0359 9.76092L13.0437 12.7875C13.2656 13.4528 13.6393 14.0573 14.1354 14.5531C14.6314 15.0488 15.2361 15.4223 15.9016 15.6437L18.9266 16.6515C19.4422 16.8234 19.4422 17.5515 18.9266 17.7234L15.9 18.7312C15.2347 18.9531 14.6302 19.3268 14.1344 19.8229C13.6386 20.3189 13.2652 20.9236 13.0437 21.589L12.0359 24.614C11.9989 24.727 11.9271 24.8253 11.8309 24.895C11.7346 24.9647 11.6188 25.0022 11.5 25.0022C11.3812 25.0022 11.2654 24.9647 11.1691 24.895C11.0729 24.8253 11.0011 24.727 10.9641 24.614L9.95624 21.5875C9.73457 20.9223 9.36106 20.3179 8.8653 19.8222C8.36953 19.3264 7.76514 18.9529 7.09999 18.7312L4.07343 17.7234C3.96052 17.6864 3.8622 17.6146 3.7925 17.5184C3.72279 17.4221 3.68526 17.3063 3.68526 17.1875C3.68526 17.0686 3.72279 16.9528 3.7925 16.8566C3.8622 16.7604 3.96052 16.6886 4.07343 16.6515L7.09999 15.6437C7.76514 15.4221 8.36953 15.0485 8.8653 14.5528C9.36106 14.057 9.73457 13.4526 9.95624 12.7875L10.9641 9.76092V9.76092ZM4.92812 1.79373C4.95052 1.72606 4.99369 1.66718 5.05147 1.62545C5.10925 1.58371 5.17872 1.56125 5.24999 1.56125C5.32127 1.56125 5.39074 1.58371 5.44852 1.62545C5.5063 1.66718 5.54946 1.72606 5.57187 1.79373L6.17656 3.60936C6.44687 4.41873 7.08124 5.05311 7.89062 5.32342L9.70624 5.92811C9.77391 5.95051 9.83279 5.99367 9.87453 6.05145C9.91626 6.10924 9.93872 6.1787 9.93872 6.24998C9.93872 6.32126 9.91626 6.39072 9.87453 6.44851C9.83279 6.50629 9.77391 6.54945 9.70624 6.57186L7.89062 7.17654C7.49144 7.30954 7.12872 7.53367 6.8312 7.83119C6.53369 8.12871 6.30955 8.49143 6.17656 8.89061L5.57187 10.7062C5.54946 10.7739 5.5063 10.8328 5.44852 10.8745C5.39074 10.9162 5.32127 10.9387 5.24999 10.9387C5.17872 10.9387 5.10925 10.9162 5.05147 10.8745C4.99369 10.8328 4.95052 10.7739 4.92812 10.7062L4.32343 8.89061C4.19044 8.49143 3.9663 8.12871 3.66878 7.83119C3.37127 7.53367 3.00855 7.30954 2.60937 7.17654L0.793744 6.57186C0.726079 6.54945 0.667196 6.50629 0.625462 6.44851C0.583727 6.39072 0.561264 6.32126 0.561264 6.24998C0.561264 6.1787 0.583727 6.10924 0.625462 6.05145C0.667196 5.99367 0.726079 5.95051 0.793744 5.92811L2.60937 5.32342C3.00855 5.19042 3.37127 4.96629 3.66878 4.66877C3.9663 4.37125 4.19044 4.00853 4.32343 3.60936L4.92812 1.79373V1.79373ZM15.9734 0.154667C15.9889 0.110177 16.0178 0.0715983 16.0561 0.0442947C16.0945 0.0169911 16.1404 0.00231934 16.1875 0.00231934C16.2346 0.00231934 16.2805 0.0169911 16.3189 0.0442947C16.3572 0.0715983 16.3861 0.110177 16.4016 0.154667L16.8047 1.36404C16.9844 1.90467 17.4078 2.3281 17.9484 2.50779L19.1578 2.91092C19.2023 2.92634 19.2409 2.95525 19.2682 2.99361C19.2955 3.03197 19.3102 3.07789 19.3102 3.12498C19.3102 3.17207 19.2955 3.21799 19.2682 3.25635C19.2409 3.29471 19.2023 3.32362 19.1578 3.33904L17.9484 3.74217C17.682 3.8308 17.4399 3.98032 17.2414 4.17886C17.0428 4.3774 16.8933 4.61949 16.8047 4.88592L16.4016 6.09529C16.3861 6.13978 16.3572 6.17836 16.3189 6.20567C16.2805 6.23297 16.2346 6.24764 16.1875 6.24764C16.1404 6.24764 16.0945 6.23297 16.0561 6.20567C16.0178 6.17836 15.9889 6.13978 15.9734 6.09529L15.5703 4.88592C15.4817 4.61949 15.3322 4.3774 15.1336 4.17886C14.9351 3.98032 14.693 3.8308 14.4266 3.74217L13.2187 3.33904C13.1743 3.32362 13.1357 3.29471 13.1084 3.25635C13.0811 3.21799 13.0664 3.17207 13.0664 3.12498C13.0664 3.07789 13.0811 3.03197 13.1084 2.99361C13.1357 2.95525 13.1743 2.92634 13.2187 2.91092L14.4281 2.50779C14.9687 2.3281 15.3922 1.90467 15.5719 1.36404L15.9734 0.15623V0.154667Z" fill="#18181B"/>
</svg>
